<svg width="732" height="404" viewBox="0 0 732 404" fill="none" xmlns="http://www.w3.org/2000/svg">
<g id="flowers 1" clip-path="url(#clip0_201_2)">
<path id="Vector" d="M0 402.811C0 403.471 0.530269 404 1.1906 404H730.809C731.47 404 732 403.471 732 402.811C732 402.152 731.47 401.623 730.809 401.623H1.1906C0.530269 401.623 0 402.152 0 402.811Z" fill="#3F3D56"/>
<g id="Group">
<g id="Group_2">
<path id="main_arm" d="M254.399 136.399L260.647 114.538L269.756 119.218L313.797 102.948L321.189 99.8168C323.381 96.8982 326.24 94.5469 329.529 92.9582C337.699 88.8727 346.434 89.7695 349.038 94.9614C351.641 100.153 347.129 107.672 338.955 111.758C335.712 113.435 332.114 114.312 328.462 114.316L303.28 126.515L269.121 143.373L254.399 136.399Z" fill="#B07878"/>
<path id="Vector_2" d="M237.628 107.099L238.894 124.218L258.083 143.015L259.676 138.896L263.136 129.971L267.699 118.159L268.746 115.457L253.705 98.1636L241.219 83.8009C238.272 91.168 237.05 99.133 237.628 107.099Z" fill="#E6E6E6"/>
</g>
<g id="Group_3">
<path id="Vector_3" d="M342.971 66.9749C342.971 66.9749 341.047 60.7089 343.601 55.8673C346.155 51.0257 349.086 45.4358 349.086 45.4358C349.086 45.4358 353.609 46.6619 351.46 56.1778C351.46 56.1778 357.681 43.412 360.128 44.5877C362.575 45.7634 361.859 48.9353 361.859 48.9353C363.958 48.6464 366.032 49.6086 367.164 51.3963L363.779 59.1865C363.779 59.1865 372.871 51.559 373.928 52.4219C374.985 53.2847 376.576 59.5385 376.576 59.5385C376.576 59.5385 380.598 58.3604 382.36 59.7985C384.122 61.2367 377.822 70.6519 377.822 70.6519C379.63 67.7848 382.066 67.2647 385.092 68.9543C385.092 68.9543 381.504 83.4586 371.723 83.3407C368.371 83.3003 360.987 88.5385 356.678 86.2046C348.416 81.729 342.971 66.9749 342.971 66.9749Z" fill="#FFEF00"/>
<path id="Vector_4" d="M354.545 68.8506C351.808 61.5682 350.423 59.3818 350.423 59.3818C350.423 59.3818 343.384 58.2142 342.432 66.1246L340.939 63.497C340.939 63.497 338.564 69.2031 346.498 79.5388C355.084 90.7227 364.519 87.9079 365.421 86.2973C365.421 86.2973 379.104 88.5432 384.089 75.7075L379.63 75.1208L365.721 82.1983L365.963 77.1253C366.122 73.7838 362.306 71.7727 359.632 73.7897C359.632 73.7897 357.283 76.133 354.545 68.8506Z" fill="#3F3D56"/>
<path id="Vector_5" d="M332.4 123.89C331.994 123.659 331.768 123.183 331.877 122.704C336.254 103.316 350.293 81.0009 350.434 80.7774C350.757 80.2689 351.436 80.1131 351.941 80.4384C352.45 80.7601 352.602 81.4327 352.28 81.9414C352.14 82.1621 338.3 104.167 334.006 123.184C333.874 123.77 333.289 124.139 332.701 124.007C332.592 123.983 332.492 123.943 332.4 123.89Z" fill="#3F3D56"/>
</g>
<g id="Group_4">
<path id="her_hand" d="M385.984 95.2497C388.683 96.7965 390.973 98.9656 392.66 101.577L403.248 108.016L435.104 125.916L447.285 139.698L436.196 149.122L396.953 121.18L385.606 113.468C382.501 113.247 379.493 112.286 376.837 110.665C370.135 106.704 366.75 100.041 369.275 95.7842C371.801 91.5265 379.28 91.287 385.984 95.2497Z" fill="#B07878"/>
<path id="Vector_6" d="M435.1 125.917L438.898 146.817L439.367 149.433L482.699 121.504L485.963 108.221L485.941 108.102L482.492 92.0171L435.1 125.917Z" fill="#E6E6E6"/>
</g>
<g id="Group_5">
<path id="Vector_7" d="M262.241 397.257L273.793 397.055L278.557 352.461L261.507 352.758L262.241 397.257Z" fill="#B07878"/>
<path id="Vector_8" d="M301.816 396.307C302.186 396.906 302.408 398.855 302.419 399.559C302.455 401.721 300.728 403.505 298.563 403.543L262.787 404.164C261.31 404.19 260.092 403.015 260.068 401.54L260.044 400.052C260.044 400.052 258.2 395.612 261.753 390.039C261.753 390.039 266.353 394.275 273.009 387.399L274.945 383.754L289.563 394.053L297.586 394.898C299.341 395.083 300.89 394.808 301.816 396.307Z" fill="#2F2E41"/>
</g>
<g id="Group_6">
<path id="Vector_9" d="M309.967 397.608L321.417 396.056L320.858 351.223L303.959 353.513L309.967 397.608Z" fill="#B07878"/>
<path id="Vector_10" d="M349.161 392.036C349.599 392.587 350.051 394.497 350.146 395.194C350.438 397.337 348.934 399.31 346.788 399.6L311.328 404.402C309.864 404.6 308.516 403.576 308.317 402.114L308.116 400.64C308.116 400.64 305.759 396.448 308.626 390.498C308.626 390.498 313.697 394.166 319.492 386.561L320.983 382.716L336.724 391.231L344.792 391.132C346.558 391.11 348.063 390.655 349.161 392.036Z" fill="#2F2E41"/>
</g>
<g id="Group_7">
<path id="Vector_11" d="M453.999 395.283L441.046 395.281L434.884 345.4L454.002 345.401L453.999 395.283Z" fill="#B07878"/>
<path id="Vector_12" d="M409.618 394.989C409.215 395.668 409.002 397.856 409.002 398.645C409.002 401.069 410.971 403.034 413.399 403.034H453.515C455.171 403.034 456.514 401.694 456.514 400.04V398.372C456.514 398.372 458.499 393.361 454.413 387.184C454.413 387.184 449.335 392.021 441.747 384.446L439.509 380.399L423.312 392.225L414.334 393.328C412.37 393.569 410.629 393.291 409.618 394.989Z" fill="#2F2E41"/>
</g>
<g id="Group_8">
<path id="Vector_13" d="M496.835 385.485L484.278 388.664L466.019 341.827L484.551 337.134L496.835 385.485Z" fill="#B07878"/>
<path id="Vector_14" d="M453.744 396.096C453.52 396.853 453.853 399.026 454.047 399.791C454.644 402.14 457.036 403.562 459.39 402.966L498.274 393.118C499.88 392.711 500.851 391.082 500.444 389.479L500.033 387.863C500.033 387.863 500.722 382.518 495.241 377.534C495.241 377.534 491.51 383.469 482.289 377.989L479.123 374.615L466.337 390.055L457.906 393.328C456.062 394.044 454.305 394.202 453.744 396.096Z" fill="#2F2E41"/>
</g>
<path id="Vector_15" d="M434.107 161.604L471.217 165.963L477.766 182.308C477.766 182.308 491.955 198.654 473.4 230.254L466.851 280.38L491.19 357.494L464.121 358.493L438.339 284.839L426.466 221.537L425.375 196.474L434.107 161.604Z" fill="#2F2E41"/>
<path id="Vector_16" d="M436.289 218.268L426.466 221.537L430.163 358.493H460.176L436.289 218.268Z" fill="#2F2E41"/>
<path id="Vector_17" d="M315.264 192.602L322.5 382H307.5L286.764 258.686L281.5 320.5L276.5 385L262 390L253.245 284.445L246.434 230.832C246.434 230.832 238.906 206.802 246.434 195.879C253.962 184.956 315.264 192.602 315.264 192.602Z" fill="#2F2E41"/>
<path id="Vector_18" d="M478.312 56.4504L478.858 77.6991L463.031 82.6027L457.028 77.6991L455.391 59.7194L478.312 56.4504Z" fill="#FFB6B6"/>
<path id="Vector_19" d="M258.923 58.6297L265.472 40.1052L290.576 57.54L285.119 72.7955L258.923 58.6297Z" fill="#B07878"/>
<path id="Vector_20" d="M426.226 128.925L429.719 144.507L433.659 162.106L471.632 166.562L482.7 121.504L485.963 108.221L485.942 108.102L482.492 92.0171L479.294 77.1543H456.777L432.513 104.56C428.529 109.071 426.15 114.727 425.658 120.611C425.429 123.368 425.615 126.169 426.226 128.925Z" fill="#EBFF05"/>
<path id="Vector_21" d="M460.848 66.2575C474.11 66.2575 484.861 55.5244 484.861 42.2845C484.861 29.0446 474.11 18.3116 460.848 18.3116C447.586 18.3116 436.835 29.0446 436.835 42.2845C436.835 55.5244 447.586 66.2575 460.848 66.2575Z" fill="#B07878"/>
<path id="blush" d="M448 52C449.657 52 451 50.433 451 48.5C451 46.567 449.657 45 448 45C446.343 45 445 46.567 445 48.5C445 50.433 446.343 52 448 52Z" fill="#F6B789"/>
<path id="Vector_22" d="M288.393 58.6297C301.655 58.6297 312.406 47.8967 312.406 34.6568C312.406 21.4169 301.655 10.6838 288.393 10.6838C275.131 10.6838 264.38 21.4169 264.38 34.6568C264.38 47.8967 275.131 58.6297 288.393 58.6297Z" fill="#B07878"/>
<path id="Vector_23" d="M237.628 107.099L238.894 124.218L244.21 196.169L244.352 196.31C244.45 196.42 254.644 206.303 271.192 197.499C287.16 188.999 318.442 200.681 318.758 200.8L319.719 201.16L312.1 167.914L306.61 143.995L302.681 126.811L298.5 108.603L289.954 71.3249L255.397 55.7416L243.347 79.1048C242.561 80.6414 241.841 82.1993 241.219 83.8009C238.272 91.1679 237.05 99.133 237.628 107.099Z" fill="#2F2E41"/>
<g id="Vector_24">
<path d="M231.353 72.8846L228.433 78.1499L222.29 84.7752C222.29 84.7752 226.903 79.7018 219.462 87.6491C212.02 95.5965 217.213 87.2542 211.525 93.8185C211.323 99.042 216.48 100.302 215.707 95.4994C222.243 105.253 239.235 111.203 237.304 94.6351C247.621 90.6269 253.358 80.1597 248.61 71.582L255.552 55.9965C255.552 55.9965 255.552 55.9965 249.017 61.0602C248.023 51.599 231.353 72.8846 231.353 72.8846Z" fill="#2F2E41"/>
<path d="M228.799 78.4898L228.84 78.4454L228.87 78.3924L231.771 73.1622L231.793 73.1337C231.825 73.0942 231.871 73.0356 231.932 72.9594C232.053 72.807 232.232 72.5842 232.459 72.3037C232.915 71.7428 233.568 70.9515 234.354 70.0313C235.927 68.1893 238.03 65.8378 240.16 63.7844C242.307 61.7131 244.421 60.0067 246.02 59.3821C246.822 59.0687 247.368 59.0768 247.72 59.2831C248.066 59.4862 248.402 59.988 248.52 61.1124L248.614 62.0054L249.323 61.4554L254.286 57.61L248.153 71.3786L248.052 71.6062L248.173 71.8242C250.455 75.9476 250.227 80.5316 248.161 84.5955C246.091 88.6662 242.177 92.2054 237.123 94.169L236.762 94.309L236.807 94.693C237.283 98.7721 236.576 101.335 235.288 102.801C234.012 104.252 232.059 104.747 229.746 104.442C225.09 103.828 219.326 100.002 216.122 95.221L215.213 95.5789C215.396 96.7156 215.206 97.3709 214.957 97.6896C214.735 97.9741 214.4 98.0738 213.981 97.9418C213.121 97.6711 211.985 96.3729 212.02 94.0112C213.374 92.4573 214.038 91.84 214.381 91.6282C214.412 91.6093 214.436 91.5958 214.456 91.5864L214.456 91.5865C214.473 91.6016 214.499 91.6233 214.526 91.6444C214.668 91.7572 214.892 91.8914 215.226 91.8607C215.512 91.8344 215.815 91.6913 216.162 91.4571C216.862 90.9841 217.967 89.977 219.827 87.9909C221.048 86.6868 221.944 85.7341 222.588 85.0524L222.656 85.1152L222.66 85.1115L222.66 85.1114L228.799 78.4898ZM214.509 91.5647C214.509 91.5648 214.508 91.5651 214.506 91.5654C214.508 91.5648 214.509 91.5647 214.509 91.5647Z" stroke="black" stroke-opacity="0.18"/>
</g>
<path id="Vector_25" d="M297.671 31.9325L300.945 29.7532V22.1254C300.945 22.1254 316.226 25.3945 312.952 13.408C309.677 1.4215 294.519 -1.01356 282.39 0.331829C281.899 0.386313 281.408 0.435344 280.918 0.479341C269.212 1.53052 259.69 10.4104 258.245 22.0552C256.676 34.7041 257.305 48.1958 267.109 48.2777L276.933 51.5468C276.933 51.5468 272.567 30.8429 281.298 35.2016C290.03 39.5603 297.671 31.9325 297.671 31.9325Z" fill="#2F2E41"/>
<g id="Group_9">
<path id="Vector_26" d="M326.032 64.2475C326.032 64.2475 321.25 59.7568 321.065 54.2881C320.88 48.8193 320.652 42.5137 320.652 42.5137C320.652 42.5137 325.188 41.3412 328.046 50.6694C328.046 50.6694 327.112 36.5036 329.822 36.314C332.531 36.1244 333.483 39.2339 333.483 39.2339C335.162 37.9447 337.441 37.7543 339.312 38.7471L340.239 47.1881C340.239 47.1881 344.35 36.0648 345.696 36.2913C347.043 36.5177 351.529 41.1625 351.529 41.1625C351.529 41.1625 354.437 38.1494 356.681 38.5268C358.926 38.9043 358.128 50.1987 358.128 50.1987C358.275 46.8139 360.132 45.1572 363.599 45.1276C363.599 45.1276 367.683 59.5008 359.129 64.2374C356.197 65.8607 352.384 74.0637 347.483 74.1681C338.085 74.3682 326.032 64.2475 326.032 64.2475Z" fill="#FFEF00"/>
<path id="Vector_27" d="M337.016 60.1501C331.024 55.1793 328.736 53.9651 328.736 53.9651C328.736 53.9651 322.042 56.4338 325.142 63.7753L322.541 62.2318C322.541 62.2318 323.31 68.3632 335.332 73.415C348.341 78.8814 355.139 71.7683 355.123 69.923C355.123 69.923 368.122 65.1045 366.08 51.4896L361.917 53.1857L353.349 66.2146L351.041 61.6885C349.52 58.7073 345.207 58.8489 343.886 61.9234C343.886 61.9234 343.009 65.1209 337.016 60.1501Z" fill="#3F3D56"/>
<path id="Vector_28" d="M345.102 118.912C344.635 118.912 344.202 118.611 344.059 118.141C338.237 99.1352 339.354 72.8073 339.366 72.5434C339.394 71.9421 339.906 71.4707 340.506 71.5037C341.108 71.5314 341.574 72.04 341.547 72.6413C341.535 72.902 340.436 98.8617 346.146 117.504C346.322 118.079 345.998 118.689 345.422 118.864C345.315 118.897 345.208 118.912 345.102 118.912Z" fill="#3F3D56"/>
</g>
<g id="Group_10">
<path id="Vector_29" d="M256.331 132.705L276.523 136.393L273.124 144.964L291.638 183.005L295.105 189.355C297.921 191.064 300.286 193.421 302.004 196.228C306.398 203.192 306.365 211.098 301.931 213.885C297.498 216.671 290.343 213.285 285.949 206.318C284.156 203.558 283.049 200.411 282.722 197.139L269.536 175.641L251.368 146.506L256.331 132.705Z" fill="#B07878"/>
<path id="Vector_30" d="M266.167 77.699L283.743 87.662L280.456 150.427L246.822 156.034L266.167 77.699Z" fill="#2F2E41"/>
</g>
<g id="Group_11">
<path id="Vector_31" d="M456.464 189.936C458.374 187.483 460.844 185.521 463.669 184.216L471.529 174.645L493.718 145.642L509.084 135.518L516.888 147.792L483.711 182.701L474.483 192.845C473.831 195.884 472.459 198.724 470.482 201.124C465.621 207.199 458.54 209.618 454.669 206.529C450.797 203.44 451.6 196.012 456.464 189.936Z" fill="#B07878"/>
<path id="Vector_32" d="M465.555 91.9023L486.29 77.1166L517.638 144.704L493.718 145.642L465.555 91.9023Z" fill="#E0EF2F"/>
</g>
<path id="Vector_33" d="M440.655 29.7532C440.655 29.7532 444.321 22.1784 446.286 27.7717C448.251 33.365 458.73 47.3482 458.73 47.3482C458.73 47.3482 464.297 55.1167 458.075 61.6422C451.853 68.1677 438.427 99.863 457.093 94.5805C475.759 89.2979 485.255 101.727 485.255 101.727C485.255 101.727 501.302 102.97 499.009 86.812C496.717 70.6536 484.928 60.0885 484.928 40.5119C484.928 20.9354 473.794 12.5455 467.244 13.4777C460.695 14.4099 436.726 14.527 440.655 29.7532Z" fill="#2F2E41"/>
</g>
</g>
<defs>
<clipPath id="clip0_201_2">
<rect width="732" height="404" fill="white"/>
</clipPath>
</defs>
</svg>
