<svg width="297" height="297" viewBox="0 0 297 297" fill="none" xmlns="http://www.w3.org/2000/svg">
<g id="search-svgrepo-com 1">
<g id="Group">
<g id="Group_2">
<path id="Vector" d="M206.508 167.062C164.287 167.062 129.938 132.713 129.938 90.4922C129.938 48.2712 164.287 13.9219 206.508 13.9219C248.729 13.9219 283.078 48.2712 283.078 90.4922C283.078 132.713 248.729 167.062 206.508 167.062Z" fill="#BBF1FB"/>
</g>
<g id="Group_3">
<path id="Vector_2" d="M139.217 146.179L120.655 164.742L132.256 176.343L150.818 157.781L139.217 146.179Z" fill="#8A8895"/>
</g>
<g id="Group_4">
<path id="Vector_3" d="M134.569 176.759C132.829 172.898 129.797 169.641 128.582 168.425C126.385 166.224 120.629 161.108 114.656 161.108C112.109 161.108 109.838 162.033 108.012 163.866L4.07853 273.232C1.4502 275.864 0 279.36 0 283.078C0 286.796 1.4502 290.293 4.07853 292.921C6.70744 295.552 10.2059 297 13.9219 297C17.6379 297 21.1369 295.552 23.6788 293.005L133.218 188.908C134.977 187.152 137.488 183.237 134.569 176.759Z" fill="#7E5C62" fill-opacity="0.66"/>
</g>
<g id="Group_5">
<path id="Vector_4" d="M206.508 0C156.612 0 116.016 40.5939 116.016 90.4922C116.016 140.391 156.612 180.984 206.508 180.984C256.404 180.984 297 140.391 297 90.4922C297 40.5939 256.404 0 206.508 0ZM206.508 167.062C164.287 167.062 129.938 132.713 129.938 90.4922C129.938 48.2712 164.287 13.9219 206.508 13.9219C248.729 13.9219 283.078 48.2712 283.078 90.4922C283.078 132.713 248.729 167.062 206.508 167.062Z" fill="#5C546A"/>
</g>
<g id="Group_6">
<path id="Vector_5" d="M134.569 176.759C132.829 172.898 129.797 169.641 128.582 168.425L128.579 168.421L4.07855 292.921C6.70747 295.552 10.2059 297 13.9219 297C17.6379 297 21.1369 295.552 23.6788 293.005L133.218 188.908C134.977 187.152 137.488 183.237 134.569 176.759Z" fill="#9E6459"/>
</g>
<g id="Group_7">
<path id="Vector_6" d="M95.8503 176.663L120.337 201.15L127.067 194.754L102.246 169.933L95.8503 176.663Z" fill="#5C546A"/>
</g>
<g id="Group_8">
<path id="reflection" d="M225.07 99.7734C209.717 99.7734 197.227 87.2826 197.227 71.9297C197.227 56.5768 209.717 44.0859 225.07 44.0859C240.423 44.0859 252.914 56.5768 252.914 71.9297C252.914 87.2826 240.423 99.7734 225.07 99.7734Z" fill="white"/>
</g>
</g>
</g>
</svg>
